<svg xmlns="http://www.w3.org/2000/svg" width="9.739" height="11.13" viewBox="0 0 9.739 11.13">
  <path id="calendar-alt-regular" d="M3.217,6.26h-.87A.262.262,0,0,1,2.087,6V5.13a.262.262,0,0,1,.261-.261h.87a.262.262,0,0,1,.261.261V6A.262.262,0,0,1,3.217,6.26ZM5.565,6V5.13A.262.262,0,0,0,5.3,4.869h-.87a.262.262,0,0,0-.261.261V6a.262.262,0,0,0,.261.261H5.3A.262.262,0,0,0,5.565,6ZM7.652,6V5.13a.262.262,0,0,0-.261-.261h-.87a.262.262,0,0,0-.261.261V6a.262.262,0,0,0,.261.261h.87A.262.262,0,0,0,7.652,6ZM5.565,8.086v-.87A.262.262,0,0,0,5.3,6.956h-.87a.262.262,0,0,0-.261.261v.87a.262.262,0,0,0,.261.261H5.3A.262.262,0,0,0,5.565,8.086Zm-2.087,0v-.87a.262.262,0,0,0-.261-.261h-.87a.262.262,0,0,0-.261.261v.87a.262.262,0,0,0,.261.261h.87A.262.262,0,0,0,3.478,8.086Zm4.174,0v-.87a.262.262,0,0,0-.261-.261h-.87a.262.262,0,0,0-.261.261v.87a.262.262,0,0,0,.261.261h.87A.262.262,0,0,0,7.652,8.086ZM9.739,2.435v7.652A1.044,1.044,0,0,1,8.7,11.13H1.043A1.044,1.044,0,0,1,0,10.086V2.435A1.044,1.044,0,0,1,1.043,1.391H2.087V.261A.262.262,0,0,1,2.348,0h.87a.262.262,0,0,1,.261.261v1.13H6.26V.261A.262.262,0,0,1,6.521,0h.87a.262.262,0,0,1,.261.261v1.13H8.7A1.044,1.044,0,0,1,9.739,2.435ZM8.7,9.956V3.478H1.043V9.956a.131.131,0,0,0,.13.13H8.565A.131.131,0,0,0,8.7,9.956Z" fill="#707070"/>
</svg>
