<svg xmlns="http://www.w3.org/2000/svg" width="13.418" height="9.391" viewBox="0 0 13.418 9.391">
  <path id="credit-card-regular" d="M12.3,32H1.12A1.068,1.068,0,0,0,0,33.006v7.379a1.068,1.068,0,0,0,1.12,1.006H12.3a1.068,1.068,0,0,0,1.12-1.006V33.006A1.068,1.068,0,0,0,12.3,32ZM1.26,33.006h10.9a.134.134,0,0,1,.14.126v.88H1.12v-.88A.134.134,0,0,1,1.26,33.006Zm10.9,7.379H1.26a.134.134,0,0,1-.14-.126V36.7H12.3v3.564A.134.134,0,0,1,12.158,40.385Zm-7.685-2.1v.838a.267.267,0,0,1-.28.252H2.516a.267.267,0,0,1-.28-.252v-.838a.267.267,0,0,1,.28-.252H4.193A.267.267,0,0,1,4.473,38.289Zm4.473,0v.838a.267.267,0,0,1-.28.252H5.5a.267.267,0,0,1-.28-.252v-.838a.267.267,0,0,1,.28-.252H8.666A.267.267,0,0,1,8.945,38.289Z" transform="translate(0 -32)" fill="#707070"/>
</svg>
