<svg xmlns="http://www.w3.org/2000/svg" width="12.879" height="10.417" viewBox="0 0 12.879 10.417">
  <path id="user-check-solid" d="M4.251,4.859a2.427,2.427,0,1,0-.268-.015A2.429,2.429,0,0,0,4.251,4.859Zm1.7.607H5.635a3.3,3.3,0,0,1-2.767,0H2.551A2.551,2.551,0,0,0,0,8.017v.79a.911.911,0,0,0,.911.911H7.591A.911.911,0,0,0,8.5,8.806v-.79A2.551,2.551,0,0,0,5.952,5.466Zm6.13-2.437L11.554,2.5a.225.225,0,0,0-.319,0L9.246,4.468,8.383,3.6a.225.225,0,0,0-.319,0l-.533.53a.225.225,0,0,0,0,.319L9.079,6.007a.225.225,0,0,0,.319,0L12.08,3.348A.227.227,0,0,0,12.082,3.029Z" transform="translate(0.35 0.35)" fill="none" stroke="#707070" stroke-width="0.7"/>
</svg>
