<svg xmlns="http://www.w3.org/2000/svg" width="49.829" height="15.265" viewBox="0 0 49.829 15.265">
  <g id="download" transform="translate(-60.197 -148.968)">
    <path id="Path_4" data-name="Path 4" d="M129.572,164.059l2.52-14.788h4.031L133.6,164.059Zm18.592-14.47a10.41,10.41,0,0,0-3.613-.621c-3.983,0-6.789,2.006-6.813,4.88-.022,2.125,2,3.31,3.532,4.018,1.569.725,2.1,1.187,2.089,1.834-.01.991-1.253,1.444-2.412,1.444a8.453,8.453,0,0,1-3.794-.776l-.52-.235-.566,3.31a12.758,12.758,0,0,0,4.49.789c4.237,0,6.988-1.983,7.019-5.053.015-1.682-1.059-2.962-3.384-4.018-1.409-.684-2.272-1.141-2.263-1.833,0-.615.73-1.272,2.309-1.272a7.437,7.437,0,0,1,3.017.567l.361.171.546-3.205m10.373-.319h-3.115a2.005,2.005,0,0,0-2.111,1.226l-5.986,13.553h4.233s.692-1.822.848-2.222l5.162.006c.121.518.49,2.216.49,2.216h3.74l-3.263-14.779ZM153.6,158.82c.333-.852,1.606-4.134,1.606-4.134-.024.039.331-.856.534-1.411l.272,1.275s.772,3.53.933,4.27H153.6ZM126.15,149.27,122.2,159.355l-.42-2.049a11.542,11.542,0,0,0-5.583-6.2l3.609,12.933,4.265,0,6.346-14.761h-4.27" transform="translate(-51.773)" fill="#fff"/>
    <path id="Path_5" data-name="Path 5" d="M66.748,152.96h-6.5l-.052.308c5.057,1.224,8.4,4.182,9.792,7.737l-1.413-6.8a1.687,1.687,0,0,0-1.827-1.249" transform="translate(0 -3.69)" fill="#f2ae14"/>
  </g>
</svg>
